<mxfile host="app.diagrams.net" modified="2023-05-24T19:17:20.936Z" agent="Mozilla/5.0 (Macintosh; Intel Mac OS X 10_15_7) AppleWebKit/537.36 (KHTML, like Gecko) Chrome/113.0.0.0 Safari/537.36" etag="tyWK4mfTueT7k_fWgL2E" version="21.3.3" type="device" pages="4">
  <diagram name="Company" id="OJnfuqviY-icBxPjzKwM">
    <mxGraphModel dx="1434" dy="765" grid="1" gridSize="10" guides="1" tooltips="1" connect="1" arrows="1" fold="1" page="1" pageScale="1" pageWidth="850" pageHeight="1100" math="0" shadow="0">
      <root>
        <mxCell id="0" />
        <mxCell id="1" parent="0" />
        <mxCell id="u0NK_OAoUrda4JOuYj5N-1" value="Department" style="swimlane;fontStyle=0;childLayout=stackLayout;horizontal=1;startSize=30;horizontalStack=0;resizeParent=1;resizeParentMax=0;resizeLast=0;collapsible=1;marginBottom=0;whiteSpace=wrap;html=1;" parent="1" vertex="1">
          <mxGeometry x="685" y="160" width="140" height="120" as="geometry" />
        </mxCell>
        <mxCell id="u0NK_OAoUrda4JOuYj5N-2" value="department_no {PK}" style="text;strokeColor=none;fillColor=none;align=left;verticalAlign=middle;spacingLeft=4;spacingRight=4;overflow=hidden;points=[[0,0.5],[1,0.5]];portConstraint=eastwest;rotatable=0;whiteSpace=wrap;html=1;" parent="u0NK_OAoUrda4JOuYj5N-1" vertex="1">
          <mxGeometry y="30" width="140" height="30" as="geometry" />
        </mxCell>
        <mxCell id="u0NK_OAoUrda4JOuYj5N-3" value="name" style="text;strokeColor=none;fillColor=none;align=left;verticalAlign=middle;spacingLeft=4;spacingRight=4;overflow=hidden;points=[[0,0.5],[1,0.5]];portConstraint=eastwest;rotatable=0;whiteSpace=wrap;html=1;" parent="u0NK_OAoUrda4JOuYj5N-1" vertex="1">
          <mxGeometry y="60" width="140" height="30" as="geometry" />
        </mxCell>
        <mxCell id="u0NK_OAoUrda4JOuYj5N-4" value="budget" style="text;strokeColor=none;fillColor=none;align=left;verticalAlign=middle;spacingLeft=4;spacingRight=4;overflow=hidden;points=[[0,0.5],[1,0.5]];portConstraint=eastwest;rotatable=0;whiteSpace=wrap;html=1;" parent="u0NK_OAoUrda4JOuYj5N-1" vertex="1">
          <mxGeometry y="90" width="140" height="30" as="geometry" />
        </mxCell>
        <mxCell id="WDz5a0BczymbZ2hXpWuj-8" value="Employee" style="swimlane;fontStyle=0;childLayout=stackLayout;horizontal=1;startSize=30;horizontalStack=0;resizeParent=1;resizeParentMax=0;resizeLast=0;collapsible=1;marginBottom=0;whiteSpace=wrap;html=1;" parent="1" vertex="1">
          <mxGeometry x="315" y="150" width="140" height="150" as="geometry" />
        </mxCell>
        <mxCell id="WDz5a0BczymbZ2hXpWuj-9" value="SSN {PK}" style="text;strokeColor=none;fillColor=none;align=left;verticalAlign=middle;spacingLeft=4;spacingRight=4;overflow=hidden;points=[[0,0.5],[1,0.5]];portConstraint=eastwest;rotatable=0;whiteSpace=wrap;html=1;" parent="WDz5a0BczymbZ2hXpWuj-8" vertex="1">
          <mxGeometry y="30" width="140" height="30" as="geometry" />
        </mxCell>
        <mxCell id="WDz5a0BczymbZ2hXpWuj-10" value="salary" style="text;strokeColor=none;fillColor=none;align=left;verticalAlign=middle;spacingLeft=4;spacingRight=4;overflow=hidden;points=[[0,0.5],[1,0.5]];portConstraint=eastwest;rotatable=0;whiteSpace=wrap;html=1;" parent="WDz5a0BczymbZ2hXpWuj-8" vertex="1">
          <mxGeometry y="60" width="140" height="30" as="geometry" />
        </mxCell>
        <mxCell id="7zlYkP0yUzkr2qT45OFl-6" value="salary" style="text;strokeColor=none;fillColor=none;align=left;verticalAlign=middle;spacingLeft=4;spacingRight=4;overflow=hidden;points=[[0,0.5],[1,0.5]];portConstraint=eastwest;rotatable=0;whiteSpace=wrap;html=1;" parent="WDz5a0BczymbZ2hXpWuj-8" vertex="1">
          <mxGeometry y="90" width="140" height="30" as="geometry" />
        </mxCell>
        <mxCell id="WDz5a0BczymbZ2hXpWuj-11" value="phone" style="text;strokeColor=none;fillColor=none;align=left;verticalAlign=middle;spacingLeft=4;spacingRight=4;overflow=hidden;points=[[0,0.5],[1,0.5]];portConstraint=eastwest;rotatable=0;whiteSpace=wrap;html=1;" parent="WDz5a0BczymbZ2hXpWuj-8" vertex="1">
          <mxGeometry y="120" width="140" height="30" as="geometry" />
        </mxCell>
        <mxCell id="7zlYkP0yUzkr2qT45OFl-1" value="Child" style="swimlane;fontStyle=0;childLayout=stackLayout;horizontal=1;startSize=30;horizontalStack=0;resizeParent=1;resizeParentMax=0;resizeLast=0;collapsible=1;marginBottom=0;whiteSpace=wrap;html=1;" parent="1" vertex="1">
          <mxGeometry x="25" y="180" width="140" height="90" as="geometry" />
        </mxCell>
        <mxCell id="7zlYkP0yUzkr2qT45OFl-2" value="name" style="text;strokeColor=none;fillColor=none;align=left;verticalAlign=middle;spacingLeft=4;spacingRight=4;overflow=hidden;points=[[0,0.5],[1,0.5]];portConstraint=eastwest;rotatable=0;whiteSpace=wrap;html=1;" parent="7zlYkP0yUzkr2qT45OFl-1" vertex="1">
          <mxGeometry y="30" width="140" height="30" as="geometry" />
        </mxCell>
        <mxCell id="7zlYkP0yUzkr2qT45OFl-3" value="age" style="text;strokeColor=none;fillColor=none;align=left;verticalAlign=middle;spacingLeft=4;spacingRight=4;overflow=hidden;points=[[0,0.5],[1,0.5]];portConstraint=eastwest;rotatable=0;whiteSpace=wrap;html=1;" parent="7zlYkP0yUzkr2qT45OFl-1" vertex="1">
          <mxGeometry y="60" width="140" height="30" as="geometry" />
        </mxCell>
        <mxCell id="WDz5a0BczymbZ2hXpWuj-14" value="" style="endArrow=none;html=1;rounded=0;exitX=1;exitY=0.5;exitDx=0;exitDy=0;entryX=-0.021;entryY=0.25;entryDx=0;entryDy=0;entryPerimeter=0;" parent="1" source="WDz5a0BczymbZ2hXpWuj-10" target="u0NK_OAoUrda4JOuYj5N-3" edge="1">
          <mxGeometry width="50" height="50" relative="1" as="geometry">
            <mxPoint x="485" y="240" as="sourcePoint" />
            <mxPoint x="535" y="190" as="targetPoint" />
          </mxGeometry>
        </mxCell>
        <mxCell id="WDz5a0BczymbZ2hXpWuj-16" value="0..*" style="text;html=1;strokeColor=none;fillColor=none;align=center;verticalAlign=middle;whiteSpace=wrap;rounded=0;" parent="1" vertex="1">
          <mxGeometry x="455" y="190" width="60" height="30" as="geometry" />
        </mxCell>
        <mxCell id="WDz5a0BczymbZ2hXpWuj-17" value="0..1" style="text;html=1;strokeColor=none;fillColor=none;align=center;verticalAlign=middle;whiteSpace=wrap;rounded=0;" parent="1" vertex="1">
          <mxGeometry x="625" y="230" width="60" height="30" as="geometry" />
        </mxCell>
        <mxCell id="WDz5a0BczymbZ2hXpWuj-18" value="Work" style="text;html=1;strokeColor=none;fillColor=none;align=center;verticalAlign=middle;whiteSpace=wrap;rounded=0;" parent="1" vertex="1">
          <mxGeometry x="525" y="190" width="60" height="30" as="geometry" />
        </mxCell>
        <mxCell id="WDz5a0BczymbZ2hXpWuj-20" value="" style="triangle;whiteSpace=wrap;html=1;fillColor=#000000;" parent="1" vertex="1">
          <mxGeometry x="575" y="195" width="20" height="20" as="geometry" />
        </mxCell>
        <mxCell id="WDz5a0BczymbZ2hXpWuj-28" value="" style="endArrow=none;html=1;rounded=0;entryX=0;entryY=0.5;entryDx=0;entryDy=0;exitX=1;exitY=0.5;exitDx=0;exitDy=0;" parent="1" source="7zlYkP0yUzkr2qT45OFl-2" target="WDz5a0BczymbZ2hXpWuj-10" edge="1">
          <mxGeometry width="50" height="50" relative="1" as="geometry">
            <mxPoint x="145" y="320" as="sourcePoint" />
            <mxPoint x="195" y="270" as="targetPoint" />
          </mxGeometry>
        </mxCell>
        <mxCell id="WDz5a0BczymbZ2hXpWuj-29" value="1" style="text;html=1;strokeColor=none;fillColor=none;align=center;verticalAlign=middle;whiteSpace=wrap;rounded=0;" parent="1" vertex="1">
          <mxGeometry x="265" y="190" width="60" height="30" as="geometry" />
        </mxCell>
        <mxCell id="WDz5a0BczymbZ2hXpWuj-34" value="0..*" style="text;html=1;strokeColor=none;fillColor=none;align=center;verticalAlign=middle;whiteSpace=wrap;rounded=0;" parent="1" vertex="1">
          <mxGeometry x="165" y="190" width="60" height="30" as="geometry" />
        </mxCell>
        <mxCell id="WDz5a0BczymbZ2hXpWuj-37" value="" style="triangle;whiteSpace=wrap;html=1;fillColor=#33001A;rotation=-180;" parent="1" vertex="1">
          <mxGeometry x="525" y="235" width="20" height="20" as="geometry" />
        </mxCell>
        <mxCell id="WDz5a0BczymbZ2hXpWuj-38" value="Manged by" style="text;html=1;strokeColor=none;fillColor=none;align=center;verticalAlign=middle;whiteSpace=wrap;rounded=0;" parent="1" vertex="1">
          <mxGeometry x="545" y="230" width="70" height="30" as="geometry" />
        </mxCell>
        <mxCell id="WDz5a0BczymbZ2hXpWuj-41" value="1" style="text;html=1;strokeColor=none;fillColor=none;align=center;verticalAlign=middle;whiteSpace=wrap;rounded=0;" parent="1" vertex="1">
          <mxGeometry x="455" y="230" width="60" height="30" as="geometry" />
        </mxCell>
        <mxCell id="WDz5a0BczymbZ2hXpWuj-42" value="1" style="text;html=1;strokeColor=none;fillColor=none;align=center;verticalAlign=middle;whiteSpace=wrap;rounded=0;" parent="1" vertex="1">
          <mxGeometry x="625" y="190" width="60" height="30" as="geometry" />
        </mxCell>
      </root>
    </mxGraphModel>
  </diagram>
  <diagram name="Kindergarden" id="qhIZHXCILjdwBClG-h6C">
    <mxGraphModel dx="1434" dy="765" grid="1" gridSize="10" guides="1" tooltips="1" connect="1" arrows="1" fold="1" page="1" pageScale="1" pageWidth="850" pageHeight="1100" math="0" shadow="0">
      <root>
        <mxCell id="0" />
        <mxCell id="1" parent="0" />
        <mxCell id="ym-Z53lI3j9I1pUjmyp1-1" value="Pedagogues" style="swimlane;fontStyle=0;childLayout=stackLayout;horizontal=1;startSize=26;fillColor=none;horizontalStack=0;resizeParent=1;resizeParentMax=0;resizeLast=0;collapsible=1;marginBottom=0;html=1;" parent="1" vertex="1">
          <mxGeometry x="40" y="200" width="140" height="190" as="geometry" />
        </mxCell>
        <mxCell id="ym-Z53lI3j9I1pUjmyp1-2" value="initials { CPK }" style="text;strokeColor=none;fillColor=none;align=left;verticalAlign=top;spacingLeft=4;spacingRight=4;overflow=hidden;rotatable=0;points=[[0,0.5],[1,0.5]];portConstraint=eastwest;whiteSpace=wrap;html=1;" parent="ym-Z53lI3j9I1pUjmyp1-1" vertex="1">
          <mxGeometry y="26" width="140" height="26" as="geometry" />
        </mxCell>
        <mxCell id="ym-Z53lI3j9I1pUjmyp1-3" value="name" style="text;strokeColor=none;fillColor=none;align=left;verticalAlign=top;spacingLeft=4;spacingRight=4;overflow=hidden;rotatable=0;points=[[0,0.5],[1,0.5]];portConstraint=eastwest;whiteSpace=wrap;html=1;" parent="ym-Z53lI3j9I1pUjmyp1-1" vertex="1">
          <mxGeometry y="52" width="140" height="26" as="geometry" />
        </mxCell>
        <mxCell id="ym-Z53lI3j9I1pUjmyp1-4" value="email { PK }" style="text;strokeColor=none;fillColor=none;align=left;verticalAlign=top;spacingLeft=4;spacingRight=4;overflow=hidden;rotatable=0;points=[[0,0.5],[1,0.5]];portConstraint=eastwest;whiteSpace=wrap;html=1;" parent="ym-Z53lI3j9I1pUjmyp1-1" vertex="1">
          <mxGeometry y="78" width="140" height="26" as="geometry" />
        </mxCell>
        <mxCell id="ym-Z53lI3j9I1pUjmyp1-5" value="phone { PK }" style="text;strokeColor=none;fillColor=none;align=left;verticalAlign=top;spacingLeft=4;spacingRight=4;overflow=hidden;rotatable=0;points=[[0,0.5],[1,0.5]];portConstraint=eastwest;whiteSpace=wrap;html=1;" parent="ym-Z53lI3j9I1pUjmyp1-1" vertex="1">
          <mxGeometry y="104" width="140" height="26" as="geometry" />
        </mxCell>
        <mxCell id="ym-Z53lI3j9I1pUjmyp1-6" value="hours_per_week" style="text;strokeColor=none;fillColor=none;align=left;verticalAlign=top;spacingLeft=4;spacingRight=4;overflow=hidden;rotatable=0;points=[[0,0.5],[1,0.5]];portConstraint=eastwest;whiteSpace=wrap;html=1;" parent="ym-Z53lI3j9I1pUjmyp1-1" vertex="1">
          <mxGeometry y="130" width="140" height="26" as="geometry" />
        </mxCell>
        <mxCell id="ym-Z53lI3j9I1pUjmyp1-7" value="monthly_salary" style="text;strokeColor=none;fillColor=none;align=left;verticalAlign=top;spacingLeft=4;spacingRight=4;overflow=hidden;rotatable=0;points=[[0,0.5],[1,0.5]];portConstraint=eastwest;whiteSpace=wrap;html=1;" parent="ym-Z53lI3j9I1pUjmyp1-1" vertex="1">
          <mxGeometry y="156" width="140" height="34" as="geometry" />
        </mxCell>
        <mxCell id="ym-Z53lI3j9I1pUjmyp1-8" value="" style="endArrow=none;html=1;rounded=0;exitX=0.5;exitY=0;exitDx=0;exitDy=0;entryX=0.5;entryY=1;entryDx=0;entryDy=0;" parent="1" source="ym-Z53lI3j9I1pUjmyp1-1" target="ym-Z53lI3j9I1pUjmyp1-16" edge="1">
          <mxGeometry width="50" height="50" relative="1" as="geometry">
            <mxPoint x="220" y="280" as="sourcePoint" />
            <mxPoint x="410" y="291" as="targetPoint" />
          </mxGeometry>
        </mxCell>
        <mxCell id="ym-Z53lI3j9I1pUjmyp1-9" value="1" style="edgeLabel;html=1;align=center;verticalAlign=middle;resizable=0;points=[];" parent="ym-Z53lI3j9I1pUjmyp1-8" vertex="1" connectable="0">
          <mxGeometry x="-0.7308" y="1" relative="1" as="geometry">
            <mxPoint as="offset" />
          </mxGeometry>
        </mxCell>
        <mxCell id="ym-Z53lI3j9I1pUjmyp1-10" value="0..1" style="edgeLabel;html=1;align=center;verticalAlign=middle;resizable=0;points=[];" parent="ym-Z53lI3j9I1pUjmyp1-8" vertex="1" connectable="0">
          <mxGeometry x="0.7812" relative="1" as="geometry">
            <mxPoint as="offset" />
          </mxGeometry>
        </mxCell>
        <mxCell id="ym-Z53lI3j9I1pUjmyp1-11" value="Student" style="swimlane;fontStyle=0;childLayout=stackLayout;horizontal=1;startSize=26;fillColor=none;horizontalStack=0;resizeParent=1;resizeParentMax=0;resizeLast=0;collapsible=1;marginBottom=0;html=1;" parent="1" vertex="1">
          <mxGeometry x="40" y="520" width="140" height="130" as="geometry" />
        </mxCell>
        <mxCell id="ym-Z53lI3j9I1pUjmyp1-12" value="name" style="text;strokeColor=none;fillColor=none;align=left;verticalAlign=top;spacingLeft=4;spacingRight=4;overflow=hidden;rotatable=0;points=[[0,0.5],[1,0.5]];portConstraint=eastwest;whiteSpace=wrap;html=1;" parent="ym-Z53lI3j9I1pUjmyp1-11" vertex="1">
          <mxGeometry y="26" width="140" height="26" as="geometry" />
        </mxCell>
        <mxCell id="ym-Z53lI3j9I1pUjmyp1-13" value="start_date" style="text;strokeColor=none;fillColor=none;align=left;verticalAlign=top;spacingLeft=4;spacingRight=4;overflow=hidden;rotatable=0;points=[[0,0.5],[1,0.5]];portConstraint=eastwest;whiteSpace=wrap;html=1;" parent="ym-Z53lI3j9I1pUjmyp1-11" vertex="1">
          <mxGeometry y="52" width="140" height="26" as="geometry" />
        </mxCell>
        <mxCell id="ym-Z53lI3j9I1pUjmyp1-14" value="end_date" style="text;strokeColor=none;fillColor=none;align=left;verticalAlign=top;spacingLeft=4;spacingRight=4;overflow=hidden;rotatable=0;points=[[0,0.5],[1,0.5]];portConstraint=eastwest;whiteSpace=wrap;html=1;" parent="ym-Z53lI3j9I1pUjmyp1-11" vertex="1">
          <mxGeometry y="78" width="140" height="26" as="geometry" />
        </mxCell>
        <mxCell id="ym-Z53lI3j9I1pUjmyp1-15" value="phone { PK }" style="text;strokeColor=none;fillColor=none;align=left;verticalAlign=top;spacingLeft=4;spacingRight=4;overflow=hidden;rotatable=0;points=[[0,0.5],[1,0.5]];portConstraint=eastwest;whiteSpace=wrap;html=1;" parent="ym-Z53lI3j9I1pUjmyp1-11" vertex="1">
          <mxGeometry y="104" width="140" height="26" as="geometry" />
        </mxCell>
        <mxCell id="ym-Z53lI3j9I1pUjmyp1-16" value="Head of kindergarden" style="swimlane;fontStyle=0;childLayout=stackLayout;horizontal=1;startSize=26;fillColor=none;horizontalStack=0;resizeParent=1;resizeParentMax=0;resizeLast=0;collapsible=1;marginBottom=0;html=1;" parent="1" vertex="1">
          <mxGeometry x="40" y="40" width="140" height="52" as="geometry" />
        </mxCell>
        <mxCell id="ym-Z53lI3j9I1pUjmyp1-17" value="Room" style="swimlane;fontStyle=0;childLayout=stackLayout;horizontal=1;startSize=26;fillColor=none;horizontalStack=0;resizeParent=1;resizeParentMax=0;resizeLast=0;collapsible=1;marginBottom=0;html=1;" parent="1" vertex="1">
          <mxGeometry x="540" y="265" width="140" height="52" as="geometry" />
        </mxCell>
        <mxCell id="ym-Z53lI3j9I1pUjmyp1-18" value="name_of_the_room&amp;nbsp;" style="text;strokeColor=none;fillColor=none;align=left;verticalAlign=top;spacingLeft=4;spacingRight=4;overflow=hidden;rotatable=0;points=[[0,0.5],[1,0.5]];portConstraint=eastwest;whiteSpace=wrap;html=1;" parent="ym-Z53lI3j9I1pUjmyp1-17" vertex="1">
          <mxGeometry y="26" width="140" height="26" as="geometry" />
        </mxCell>
        <mxCell id="ym-Z53lI3j9I1pUjmyp1-19" value="Child" style="swimlane;fontStyle=0;childLayout=stackLayout;horizontal=1;startSize=26;fillColor=none;horizontalStack=0;resizeParent=1;resizeParentMax=0;resizeLast=0;collapsible=1;marginBottom=0;html=1;" parent="1" vertex="1">
          <mxGeometry x="540" y="465" width="140" height="104" as="geometry" />
        </mxCell>
        <mxCell id="ym-Z53lI3j9I1pUjmyp1-20" value="name" style="text;strokeColor=none;fillColor=none;align=left;verticalAlign=top;spacingLeft=4;spacingRight=4;overflow=hidden;rotatable=0;points=[[0,0.5],[1,0.5]];portConstraint=eastwest;whiteSpace=wrap;html=1;" parent="ym-Z53lI3j9I1pUjmyp1-19" vertex="1">
          <mxGeometry y="26" width="140" height="26" as="geometry" />
        </mxCell>
        <mxCell id="ym-Z53lI3j9I1pUjmyp1-21" value="date_of_birth" style="text;strokeColor=none;fillColor=none;align=left;verticalAlign=top;spacingLeft=4;spacingRight=4;overflow=hidden;rotatable=0;points=[[0,0.5],[1,0.5]];portConstraint=eastwest;whiteSpace=wrap;html=1;" parent="ym-Z53lI3j9I1pUjmyp1-19" vertex="1">
          <mxGeometry y="52" width="140" height="26" as="geometry" />
        </mxCell>
        <mxCell id="ym-Z53lI3j9I1pUjmyp1-22" value="phone { PK }" style="text;strokeColor=none;fillColor=none;align=left;verticalAlign=top;spacingLeft=4;spacingRight=4;overflow=hidden;rotatable=0;points=[[0,0.5],[1,0.5]];portConstraint=eastwest;whiteSpace=wrap;html=1;" parent="ym-Z53lI3j9I1pUjmyp1-19" vertex="1">
          <mxGeometry y="78" width="140" height="26" as="geometry" />
        </mxCell>
        <mxCell id="ym-Z53lI3j9I1pUjmyp1-23" value="" style="endArrow=none;html=1;rounded=0;exitX=0.536;exitY=0.962;exitDx=0;exitDy=0;entryX=0.5;entryY=0;entryDx=0;entryDy=0;exitPerimeter=0;" parent="1" source="ym-Z53lI3j9I1pUjmyp1-22" target="ym-Z53lI3j9I1pUjmyp1-26" edge="1">
          <mxGeometry width="50" height="50" relative="1" as="geometry">
            <mxPoint x="620" y="600" as="sourcePoint" />
            <mxPoint x="670" y="550" as="targetPoint" />
          </mxGeometry>
        </mxCell>
        <mxCell id="ym-Z53lI3j9I1pUjmyp1-24" value="1..*" style="edgeLabel;html=1;align=center;verticalAlign=middle;resizable=0;points=[];" parent="ym-Z53lI3j9I1pUjmyp1-23" vertex="1" connectable="0">
          <mxGeometry x="-0.7647" y="-2" relative="1" as="geometry">
            <mxPoint as="offset" />
          </mxGeometry>
        </mxCell>
        <mxCell id="ym-Z53lI3j9I1pUjmyp1-25" value="1..*" style="edgeLabel;html=1;align=center;verticalAlign=middle;resizable=0;points=[];" parent="ym-Z53lI3j9I1pUjmyp1-23" vertex="1" connectable="0">
          <mxGeometry x="0.7669" relative="1" as="geometry">
            <mxPoint as="offset" />
          </mxGeometry>
        </mxCell>
        <mxCell id="ym-Z53lI3j9I1pUjmyp1-26" value="Parent" style="swimlane;fontStyle=0;childLayout=stackLayout;horizontal=1;startSize=26;fillColor=none;horizontalStack=0;resizeParent=1;resizeParentMax=0;resizeLast=0;collapsible=1;marginBottom=0;html=1;" parent="1" vertex="1">
          <mxGeometry x="540" y="720" width="140" height="78" as="geometry" />
        </mxCell>
        <mxCell id="ym-Z53lI3j9I1pUjmyp1-27" value="name" style="text;strokeColor=none;fillColor=none;align=left;verticalAlign=top;spacingLeft=4;spacingRight=4;overflow=hidden;rotatable=0;points=[[0,0.5],[1,0.5]];portConstraint=eastwest;whiteSpace=wrap;html=1;" parent="ym-Z53lI3j9I1pUjmyp1-26" vertex="1">
          <mxGeometry y="26" width="140" height="26" as="geometry" />
        </mxCell>
        <mxCell id="ym-Z53lI3j9I1pUjmyp1-28" value="phone { PK }" style="text;strokeColor=none;fillColor=none;align=left;verticalAlign=top;spacingLeft=4;spacingRight=4;overflow=hidden;rotatable=0;points=[[0,0.5],[1,0.5]];portConstraint=eastwest;whiteSpace=wrap;html=1;" parent="ym-Z53lI3j9I1pUjmyp1-26" vertex="1">
          <mxGeometry y="52" width="140" height="26" as="geometry" />
        </mxCell>
        <mxCell id="ym-Z53lI3j9I1pUjmyp1-29" value="Incident report" style="swimlane;fontStyle=0;childLayout=stackLayout;horizontal=1;startSize=26;fillColor=none;horizontalStack=0;resizeParent=1;resizeParentMax=0;resizeLast=0;collapsible=1;marginBottom=0;html=1;" parent="1" vertex="1">
          <mxGeometry x="250" y="478" width="160" height="104" as="geometry" />
        </mxCell>
        <mxCell id="ym-Z53lI3j9I1pUjmyp1-30" value="time" style="text;strokeColor=none;fillColor=none;align=left;verticalAlign=top;spacingLeft=4;spacingRight=4;overflow=hidden;rotatable=0;points=[[0,0.5],[1,0.5]];portConstraint=eastwest;whiteSpace=wrap;html=1;" parent="ym-Z53lI3j9I1pUjmyp1-29" vertex="1">
          <mxGeometry y="26" width="160" height="26" as="geometry" />
        </mxCell>
        <mxCell id="ym-Z53lI3j9I1pUjmyp1-31" value="date" style="text;strokeColor=none;fillColor=none;align=left;verticalAlign=top;spacingLeft=4;spacingRight=4;overflow=hidden;rotatable=0;points=[[0,0.5],[1,0.5]];portConstraint=eastwest;whiteSpace=wrap;html=1;" parent="ym-Z53lI3j9I1pUjmyp1-29" vertex="1">
          <mxGeometry y="52" width="160" height="26" as="geometry" />
        </mxCell>
        <mxCell id="ym-Z53lI3j9I1pUjmyp1-32" value="name_of_the_pedagogoue" style="text;strokeColor=none;fillColor=none;align=left;verticalAlign=top;spacingLeft=4;spacingRight=4;overflow=hidden;rotatable=0;points=[[0,0.5],[1,0.5]];portConstraint=eastwest;whiteSpace=wrap;html=1;" parent="ym-Z53lI3j9I1pUjmyp1-29" vertex="1">
          <mxGeometry y="78" width="160" height="26" as="geometry" />
        </mxCell>
        <mxCell id="ym-Z53lI3j9I1pUjmyp1-33" value="" style="endArrow=none;html=1;rounded=0;exitX=1;exitY=0.5;exitDx=0;exitDy=0;entryX=0.5;entryY=0;entryDx=0;entryDy=0;" parent="1" source="ym-Z53lI3j9I1pUjmyp1-7" target="ym-Z53lI3j9I1pUjmyp1-29" edge="1">
          <mxGeometry width="50" height="50" relative="1" as="geometry">
            <mxPoint x="470" y="300" as="sourcePoint" />
            <mxPoint x="750" y="250" as="targetPoint" />
            <Array as="points">
              <mxPoint x="330" y="370" />
            </Array>
          </mxGeometry>
        </mxCell>
        <mxCell id="ym-Z53lI3j9I1pUjmyp1-34" value="1" style="edgeLabel;html=1;align=center;verticalAlign=middle;resizable=0;points=[];" parent="ym-Z53lI3j9I1pUjmyp1-33" vertex="1" connectable="0">
          <mxGeometry x="-0.7441" y="-2" relative="1" as="geometry">
            <mxPoint as="offset" />
          </mxGeometry>
        </mxCell>
        <mxCell id="ym-Z53lI3j9I1pUjmyp1-35" value="0..*" style="edgeLabel;html=1;align=center;verticalAlign=middle;resizable=0;points=[];" parent="ym-Z53lI3j9I1pUjmyp1-33" vertex="1" connectable="0">
          <mxGeometry x="0.8601" y="1" relative="1" as="geometry">
            <mxPoint as="offset" />
          </mxGeometry>
        </mxCell>
        <mxCell id="ym-Z53lI3j9I1pUjmyp1-36" value="" style="endArrow=none;html=1;rounded=0;exitX=0.5;exitY=0;exitDx=0;exitDy=0;entryX=0.486;entryY=1;entryDx=0;entryDy=0;entryPerimeter=0;" parent="1" source="ym-Z53lI3j9I1pUjmyp1-11" target="ym-Z53lI3j9I1pUjmyp1-7" edge="1">
          <mxGeometry width="50" height="50" relative="1" as="geometry">
            <mxPoint x="60" y="525" as="sourcePoint" />
            <mxPoint x="110" y="475" as="targetPoint" />
            <Array as="points" />
          </mxGeometry>
        </mxCell>
        <mxCell id="ym-Z53lI3j9I1pUjmyp1-37" value="1" style="edgeLabel;html=1;align=center;verticalAlign=middle;resizable=0;points=[];" parent="ym-Z53lI3j9I1pUjmyp1-36" vertex="1" connectable="0">
          <mxGeometry x="0.7312" y="3" relative="1" as="geometry">
            <mxPoint as="offset" />
          </mxGeometry>
        </mxCell>
        <mxCell id="ym-Z53lI3j9I1pUjmyp1-38" value="0..*" style="edgeLabel;html=1;align=center;verticalAlign=middle;resizable=0;points=[];" parent="ym-Z53lI3j9I1pUjmyp1-36" vertex="1" connectable="0">
          <mxGeometry x="-0.7095" y="-1" relative="1" as="geometry">
            <mxPoint as="offset" />
          </mxGeometry>
        </mxCell>
        <mxCell id="ym-Z53lI3j9I1pUjmyp1-39" value="" style="endArrow=none;html=1;rounded=0;exitX=0.996;exitY=0.077;exitDx=0;exitDy=0;exitPerimeter=0;entryX=0;entryY=0.25;entryDx=0;entryDy=0;" parent="1" source="ym-Z53lI3j9I1pUjmyp1-4" target="ym-Z53lI3j9I1pUjmyp1-17" edge="1">
          <mxGeometry width="50" height="50" relative="1" as="geometry">
            <mxPoint x="420" y="390" as="sourcePoint" />
            <mxPoint x="470" y="340" as="targetPoint" />
          </mxGeometry>
        </mxCell>
        <mxCell id="ym-Z53lI3j9I1pUjmyp1-40" value="3" style="edgeLabel;html=1;align=center;verticalAlign=middle;resizable=0;points=[];" parent="ym-Z53lI3j9I1pUjmyp1-39" vertex="1" connectable="0">
          <mxGeometry x="-0.2509" y="-1" relative="1" as="geometry">
            <mxPoint x="-89" as="offset" />
          </mxGeometry>
        </mxCell>
        <mxCell id="ym-Z53lI3j9I1pUjmyp1-41" value="1" style="edgeLabel;html=1;align=center;verticalAlign=middle;resizable=0;points=[];" parent="ym-Z53lI3j9I1pUjmyp1-39" vertex="1" connectable="0">
          <mxGeometry x="0.6367" relative="1" as="geometry">
            <mxPoint as="offset" />
          </mxGeometry>
        </mxCell>
        <mxCell id="ym-Z53lI3j9I1pUjmyp1-42" value="" style="endArrow=none;html=1;rounded=0;exitX=0.618;exitY=-0.038;exitDx=0;exitDy=0;exitPerimeter=0;entryX=0.618;entryY=1.077;entryDx=0;entryDy=0;entryPerimeter=0;" parent="1" source="ym-Z53lI3j9I1pUjmyp1-19" target="ym-Z53lI3j9I1pUjmyp1-18" edge="1">
          <mxGeometry width="50" height="50" relative="1" as="geometry">
            <mxPoint x="600" y="390" as="sourcePoint" />
            <mxPoint x="650" y="340" as="targetPoint" />
          </mxGeometry>
        </mxCell>
        <mxCell id="ym-Z53lI3j9I1pUjmyp1-43" value="1" style="edgeLabel;html=1;align=center;verticalAlign=middle;resizable=0;points=[];" parent="ym-Z53lI3j9I1pUjmyp1-42" vertex="1" connectable="0">
          <mxGeometry x="0.7005" y="-1" relative="1" as="geometry">
            <mxPoint as="offset" />
          </mxGeometry>
        </mxCell>
        <mxCell id="ym-Z53lI3j9I1pUjmyp1-44" value="12" style="edgeLabel;html=1;align=center;verticalAlign=middle;resizable=0;points=[];" parent="ym-Z53lI3j9I1pUjmyp1-42" vertex="1" connectable="0">
          <mxGeometry x="-0.8143" relative="1" as="geometry">
            <mxPoint as="offset" />
          </mxGeometry>
        </mxCell>
        <mxCell id="ym-Z53lI3j9I1pUjmyp1-45" value="" style="endArrow=none;html=1;rounded=0;entryX=-0.012;entryY=0.293;entryDx=0;entryDy=0;entryPerimeter=0;" parent="1" target="ym-Z53lI3j9I1pUjmyp1-22" edge="1">
          <mxGeometry width="50" height="50" relative="1" as="geometry">
            <mxPoint x="410" y="551" as="sourcePoint" />
            <mxPoint x="420" y="450" as="targetPoint" />
          </mxGeometry>
        </mxCell>
        <mxCell id="ym-Z53lI3j9I1pUjmyp1-46" value="0..*" style="edgeLabel;html=1;align=center;verticalAlign=middle;resizable=0;points=[];" parent="ym-Z53lI3j9I1pUjmyp1-45" vertex="1" connectable="0">
          <mxGeometry x="-0.8065" y="1" relative="1" as="geometry">
            <mxPoint as="offset" />
          </mxGeometry>
        </mxCell>
        <mxCell id="ym-Z53lI3j9I1pUjmyp1-47" value="1" style="edgeLabel;html=1;align=center;verticalAlign=middle;resizable=0;points=[];" parent="ym-Z53lI3j9I1pUjmyp1-45" vertex="1" connectable="0">
          <mxGeometry x="0.8596" y="1" relative="1" as="geometry">
            <mxPoint as="offset" />
          </mxGeometry>
        </mxCell>
      </root>
    </mxGraphModel>
  </diagram>
  <diagram name="Library" id="fg0qtn8ZpjVeNewJGCKs">
    <mxGraphModel dx="1434" dy="765" grid="1" gridSize="10" guides="1" tooltips="1" connect="1" arrows="1" fold="1" page="1" pageScale="1" pageWidth="850" pageHeight="1100" math="0" shadow="0">
      <root>
        <mxCell id="0" />
        <mxCell id="1" parent="0" />
        <mxCell id="aZlAgCGT0PlzyR4POwj5-1" value="Borrower" style="swimlane;fontStyle=0;childLayout=stackLayout;horizontal=1;startSize=30;horizontalStack=0;resizeParent=1;resizeParentMax=0;resizeLast=0;collapsible=1;marginBottom=0;whiteSpace=wrap;html=1;" parent="1" vertex="1">
          <mxGeometry x="520" y="330" width="140" height="120" as="geometry" />
        </mxCell>
        <mxCell id="aZlAgCGT0PlzyR4POwj5-2" value="name" style="text;strokeColor=none;fillColor=none;align=left;verticalAlign=middle;spacingLeft=4;spacingRight=4;overflow=hidden;points=[[0,0.5],[1,0.5]];portConstraint=eastwest;rotatable=0;whiteSpace=wrap;html=1;" parent="aZlAgCGT0PlzyR4POwj5-1" vertex="1">
          <mxGeometry y="30" width="140" height="30" as="geometry" />
        </mxCell>
        <mxCell id="aZlAgCGT0PlzyR4POwj5-3" value="address" style="text;strokeColor=none;fillColor=none;align=left;verticalAlign=middle;spacingLeft=4;spacingRight=4;overflow=hidden;points=[[0,0.5],[1,0.5]];portConstraint=eastwest;rotatable=0;whiteSpace=wrap;html=1;" parent="aZlAgCGT0PlzyR4POwj5-1" vertex="1">
          <mxGeometry y="60" width="140" height="30" as="geometry" />
        </mxCell>
        <mxCell id="aZlAgCGT0PlzyR4POwj5-4" value="borrower_number { PK }" style="text;strokeColor=none;fillColor=none;align=left;verticalAlign=middle;spacingLeft=4;spacingRight=4;overflow=hidden;points=[[0,0.5],[1,0.5]];portConstraint=eastwest;rotatable=0;whiteSpace=wrap;html=1;" parent="aZlAgCGT0PlzyR4POwj5-1" vertex="1">
          <mxGeometry y="90" width="140" height="30" as="geometry" />
        </mxCell>
        <mxCell id="aZlAgCGT0PlzyR4POwj5-5" value="Book" style="swimlane;fontStyle=0;childLayout=stackLayout;horizontal=1;startSize=30;horizontalStack=0;resizeParent=1;resizeParentMax=0;resizeLast=0;collapsible=1;marginBottom=0;whiteSpace=wrap;html=1;" parent="1" vertex="1">
          <mxGeometry x="60" y="280" width="140" height="240" as="geometry" />
        </mxCell>
        <mxCell id="aZlAgCGT0PlzyR4POwj5-6" value="title" style="text;strokeColor=none;fillColor=none;align=left;verticalAlign=middle;spacingLeft=4;spacingRight=4;overflow=hidden;points=[[0,0.5],[1,0.5]];portConstraint=eastwest;rotatable=0;whiteSpace=wrap;html=1;" parent="aZlAgCGT0PlzyR4POwj5-5" vertex="1">
          <mxGeometry y="30" width="140" height="30" as="geometry" />
        </mxCell>
        <mxCell id="aZlAgCGT0PlzyR4POwj5-7" value="edition&lt;br&gt;" style="text;strokeColor=none;fillColor=none;align=left;verticalAlign=middle;spacingLeft=4;spacingRight=4;overflow=hidden;points=[[0,0.5],[1,0.5]];portConstraint=eastwest;rotatable=0;whiteSpace=wrap;html=1;" parent="aZlAgCGT0PlzyR4POwj5-5" vertex="1">
          <mxGeometry y="60" width="140" height="30" as="geometry" />
        </mxCell>
        <mxCell id="aZlAgCGT0PlzyR4POwj5-8" value="year_of_publication" style="text;strokeColor=none;fillColor=none;align=left;verticalAlign=middle;spacingLeft=4;spacingRight=4;overflow=hidden;points=[[0,0.5],[1,0.5]];portConstraint=eastwest;rotatable=0;whiteSpace=wrap;html=1;" parent="aZlAgCGT0PlzyR4POwj5-5" vertex="1">
          <mxGeometry y="90" width="140" height="30" as="geometry" />
        </mxCell>
        <mxCell id="aZlAgCGT0PlzyR4POwj5-9" value="ISBN { PK }" style="text;strokeColor=none;fillColor=none;align=left;verticalAlign=middle;spacingLeft=4;spacingRight=4;overflow=hidden;points=[[0,0.5],[1,0.5]];portConstraint=eastwest;rotatable=0;whiteSpace=wrap;html=1;" parent="aZlAgCGT0PlzyR4POwj5-5" vertex="1">
          <mxGeometry y="120" width="140" height="30" as="geometry" />
        </mxCell>
        <mxCell id="4mmnVSMTrKVTZayiLEf2-1" value="copy { PPK}" style="text;strokeColor=none;fillColor=none;align=left;verticalAlign=middle;spacingLeft=4;spacingRight=4;overflow=hidden;points=[[0,0.5],[1,0.5]];portConstraint=eastwest;rotatable=0;whiteSpace=wrap;html=1;" parent="aZlAgCGT0PlzyR4POwj5-5" vertex="1">
          <mxGeometry y="150" width="140" height="30" as="geometry" />
        </mxCell>
        <mxCell id="4mmnVSMTrKVTZayiLEf2-2" value="status" style="text;strokeColor=none;fillColor=none;align=left;verticalAlign=middle;spacingLeft=4;spacingRight=4;overflow=hidden;points=[[0,0.5],[1,0.5]];portConstraint=eastwest;rotatable=0;whiteSpace=wrap;html=1;" parent="aZlAgCGT0PlzyR4POwj5-5" vertex="1">
          <mxGeometry y="180" width="140" height="30" as="geometry" />
        </mxCell>
        <mxCell id="4mmnVSMTrKVTZayiLEf2-3" value="loan_period" style="text;strokeColor=none;fillColor=none;align=left;verticalAlign=middle;spacingLeft=4;spacingRight=4;overflow=hidden;points=[[0,0.5],[1,0.5]];portConstraint=eastwest;rotatable=0;whiteSpace=wrap;html=1;" parent="aZlAgCGT0PlzyR4POwj5-5" vertex="1">
          <mxGeometry y="210" width="140" height="30" as="geometry" />
        </mxCell>
        <mxCell id="aZlAgCGT0PlzyR4POwj5-15" value="" style="endArrow=none;html=1;rounded=0;entryX=0;entryY=0.5;entryDx=0;entryDy=0;exitX=1.007;exitY=0.1;exitDx=0;exitDy=0;exitPerimeter=0;" parent="1" source="aZlAgCGT0PlzyR4POwj5-9" target="aZlAgCGT0PlzyR4POwj5-3" edge="1">
          <mxGeometry width="50" height="50" relative="1" as="geometry">
            <mxPoint x="495" y="345" as="sourcePoint" />
            <mxPoint x="545" y="290" as="targetPoint" />
            <Array as="points" />
          </mxGeometry>
        </mxCell>
        <mxCell id="4mmnVSMTrKVTZayiLEf2-4" value="&amp;nbsp;&amp;lt; loans&amp;nbsp;" style="edgeLabel;html=1;align=center;verticalAlign=middle;resizable=0;points=[];" parent="aZlAgCGT0PlzyR4POwj5-15" vertex="1" connectable="0">
          <mxGeometry x="0.0973" y="-1" relative="1" as="geometry">
            <mxPoint as="offset" />
          </mxGeometry>
        </mxCell>
        <mxCell id="4mmnVSMTrKVTZayiLEf2-5" value="&amp;nbsp;0..*&amp;nbsp;" style="edgeLabel;html=1;align=center;verticalAlign=middle;resizable=0;points=[];" parent="aZlAgCGT0PlzyR4POwj5-15" vertex="1" connectable="0">
          <mxGeometry x="0.8182" y="1" relative="1" as="geometry">
            <mxPoint as="offset" />
          </mxGeometry>
        </mxCell>
        <mxCell id="4mmnVSMTrKVTZayiLEf2-6" value="&amp;nbsp;0..*&amp;nbsp;" style="edgeLabel;html=1;align=center;verticalAlign=middle;resizable=0;points=[];" parent="aZlAgCGT0PlzyR4POwj5-15" vertex="1" connectable="0">
          <mxGeometry x="-0.8557" y="1" relative="1" as="geometry">
            <mxPoint as="offset" />
          </mxGeometry>
        </mxCell>
        <mxCell id="aZlAgCGT0PlzyR4POwj5-16" value="" style="endArrow=none;dashed=1;html=1;dashPattern=1 3;strokeWidth=2;rounded=0;" parent="1" edge="1">
          <mxGeometry width="50" height="50" relative="1" as="geometry">
            <mxPoint x="380" y="400" as="sourcePoint" />
            <mxPoint x="380" y="360" as="targetPoint" />
            <Array as="points">
              <mxPoint x="380" y="390" />
            </Array>
          </mxGeometry>
        </mxCell>
        <mxCell id="aZlAgCGT0PlzyR4POwj5-17" value="loan" style="swimlane;fontStyle=0;childLayout=stackLayout;horizontal=1;startSize=30;horizontalStack=0;resizeParent=1;resizeParentMax=0;resizeLast=0;collapsible=1;marginBottom=0;whiteSpace=wrap;html=1;" parent="1" vertex="1">
          <mxGeometry x="310" y="240" width="140" height="120" as="geometry" />
        </mxCell>
        <mxCell id="aZlAgCGT0PlzyR4POwj5-18" value="loan date" style="text;strokeColor=none;fillColor=none;align=left;verticalAlign=middle;spacingLeft=4;spacingRight=4;overflow=hidden;points=[[0,0.5],[1,0.5]];portConstraint=eastwest;rotatable=0;whiteSpace=wrap;html=1;" parent="aZlAgCGT0PlzyR4POwj5-17" vertex="1">
          <mxGeometry y="30" width="140" height="30" as="geometry" />
        </mxCell>
        <mxCell id="aZlAgCGT0PlzyR4POwj5-19" value="return date" style="text;strokeColor=none;fillColor=none;align=left;verticalAlign=middle;spacingLeft=4;spacingRight=4;overflow=hidden;points=[[0,0.5],[1,0.5]];portConstraint=eastwest;rotatable=0;whiteSpace=wrap;html=1;" parent="aZlAgCGT0PlzyR4POwj5-17" vertex="1">
          <mxGeometry y="60" width="140" height="30" as="geometry" />
        </mxCell>
        <mxCell id="aZlAgCGT0PlzyR4POwj5-20" value="loan_number" style="text;strokeColor=none;fillColor=none;align=left;verticalAlign=middle;spacingLeft=4;spacingRight=4;overflow=hidden;points=[[0,0.5],[1,0.5]];portConstraint=eastwest;rotatable=0;whiteSpace=wrap;html=1;" parent="aZlAgCGT0PlzyR4POwj5-17" vertex="1">
          <mxGeometry y="90" width="140" height="30" as="geometry" />
        </mxCell>
      </root>
    </mxGraphModel>
  </diagram>
  <diagram name="ChatApp" id="Bhbg9obseKXQuGGcjX1P">
    <mxGraphModel dx="1434" dy="765" grid="1" gridSize="10" guides="1" tooltips="1" connect="1" arrows="1" fold="1" page="1" pageScale="1" pageWidth="850" pageHeight="1100" math="0" shadow="0">
      <root>
        <mxCell id="0" />
        <mxCell id="1" parent="0" />
        <mxCell id="xIkBBwnJ2NsK7keoQgg3-1" value="User" style="swimlane;fontStyle=0;childLayout=stackLayout;horizontal=1;startSize=30;horizontalStack=0;resizeParent=1;resizeParentMax=0;resizeLast=0;collapsible=1;marginBottom=0;whiteSpace=wrap;html=1;" parent="1" vertex="1">
          <mxGeometry x="350" y="230" width="140" height="180" as="geometry" />
        </mxCell>
        <mxCell id="xIkBBwnJ2NsK7keoQgg3-2" value="student_number" style="text;strokeColor=none;fillColor=none;align=left;verticalAlign=middle;spacingLeft=4;spacingRight=4;overflow=hidden;points=[[0,0.5],[1,0.5]];portConstraint=eastwest;rotatable=0;whiteSpace=wrap;html=1;" parent="xIkBBwnJ2NsK7keoQgg3-1" vertex="1">
          <mxGeometry y="30" width="140" height="30" as="geometry" />
        </mxCell>
        <mxCell id="xIkBBwnJ2NsK7keoQgg3-3" value="password" style="text;strokeColor=none;fillColor=none;align=left;verticalAlign=middle;spacingLeft=4;spacingRight=4;overflow=hidden;points=[[0,0.5],[1,0.5]];portConstraint=eastwest;rotatable=0;whiteSpace=wrap;html=1;" parent="xIkBBwnJ2NsK7keoQgg3-1" vertex="1">
          <mxGeometry y="60" width="140" height="30" as="geometry" />
        </mxCell>
        <mxCell id="xIkBBwnJ2NsK7keoQgg3-4" value="name" style="text;strokeColor=none;fillColor=none;align=left;verticalAlign=middle;spacingLeft=4;spacingRight=4;overflow=hidden;points=[[0,0.5],[1,0.5]];portConstraint=eastwest;rotatable=0;whiteSpace=wrap;html=1;" parent="xIkBBwnJ2NsK7keoQgg3-1" vertex="1">
          <mxGeometry y="90" width="140" height="30" as="geometry" />
        </mxCell>
        <mxCell id="xIkBBwnJ2NsK7keoQgg3-5" value="description" style="text;strokeColor=none;fillColor=none;align=left;verticalAlign=middle;spacingLeft=4;spacingRight=4;overflow=hidden;points=[[0,0.5],[1,0.5]];portConstraint=eastwest;rotatable=0;whiteSpace=wrap;html=1;" parent="xIkBBwnJ2NsK7keoQgg3-1" vertex="1">
          <mxGeometry y="120" width="140" height="30" as="geometry" />
        </mxCell>
        <mxCell id="xIkBBwnJ2NsK7keoQgg3-6" value="picture" style="text;strokeColor=none;fillColor=none;align=left;verticalAlign=middle;spacingLeft=4;spacingRight=4;overflow=hidden;points=[[0,0.5],[1,0.5]];portConstraint=eastwest;rotatable=0;whiteSpace=wrap;html=1;" parent="xIkBBwnJ2NsK7keoQgg3-1" vertex="1">
          <mxGeometry y="150" width="140" height="30" as="geometry" />
        </mxCell>
        <mxCell id="xIkBBwnJ2NsK7keoQgg3-8" value="Converstaion" style="swimlane;fontStyle=0;childLayout=stackLayout;horizontal=1;startSize=30;horizontalStack=0;resizeParent=1;resizeParentMax=0;resizeLast=0;collapsible=1;marginBottom=0;whiteSpace=wrap;html=1;" parent="1" vertex="1">
          <mxGeometry x="40" y="250" width="140" height="60" as="geometry" />
        </mxCell>
        <mxCell id="xIkBBwnJ2NsK7keoQgg3-12" value="sees" style="swimlane;fontStyle=0;childLayout=stackLayout;horizontal=1;startSize=30;horizontalStack=0;resizeParent=1;resizeParentMax=0;resizeLast=0;collapsible=1;marginBottom=0;whiteSpace=wrap;html=1;" parent="1" vertex="1">
          <mxGeometry x="600" y="120" width="140" height="60" as="geometry" />
        </mxCell>
        <mxCell id="xIkBBwnJ2NsK7keoQgg3-13" value="has_seen" style="text;strokeColor=none;fillColor=none;align=left;verticalAlign=middle;spacingLeft=4;spacingRight=4;overflow=hidden;points=[[0,0.5],[1,0.5]];portConstraint=eastwest;rotatable=0;whiteSpace=wrap;html=1;" parent="xIkBBwnJ2NsK7keoQgg3-12" vertex="1">
          <mxGeometry y="30" width="140" height="30" as="geometry" />
        </mxCell>
        <mxCell id="xIkBBwnJ2NsK7keoQgg3-16" value="Conversation Message" style="swimlane;fontStyle=0;childLayout=stackLayout;horizontal=1;startSize=30;horizontalStack=0;resizeParent=1;resizeParentMax=0;resizeLast=0;collapsible=1;marginBottom=0;whiteSpace=wrap;html=1;" parent="1" vertex="1">
          <mxGeometry x="170" y="50" width="140" height="90" as="geometry" />
        </mxCell>
        <mxCell id="xIkBBwnJ2NsK7keoQgg3-17" value="body" style="text;strokeColor=none;fillColor=none;align=left;verticalAlign=middle;spacingLeft=4;spacingRight=4;overflow=hidden;points=[[0,0.5],[1,0.5]];portConstraint=eastwest;rotatable=0;whiteSpace=wrap;html=1;" parent="xIkBBwnJ2NsK7keoQgg3-16" vertex="1">
          <mxGeometry y="30" width="140" height="30" as="geometry" />
        </mxCell>
        <mxCell id="xIkBBwnJ2NsK7keoQgg3-18" value="body_stamp" style="text;strokeColor=none;fillColor=none;align=left;verticalAlign=middle;spacingLeft=4;spacingRight=4;overflow=hidden;points=[[0,0.5],[1,0.5]];portConstraint=eastwest;rotatable=0;whiteSpace=wrap;html=1;" parent="xIkBBwnJ2NsK7keoQgg3-16" vertex="1">
          <mxGeometry y="60" width="140" height="30" as="geometry" />
        </mxCell>
        <mxCell id="xIkBBwnJ2NsK7keoQgg3-20" value="Room Message" style="swimlane;fontStyle=0;childLayout=stackLayout;horizontal=1;startSize=30;horizontalStack=0;resizeParent=1;resizeParentMax=0;resizeLast=0;collapsible=1;marginBottom=0;whiteSpace=wrap;html=1;" parent="1" vertex="1">
          <mxGeometry x="660" y="410" width="140" height="120" as="geometry" />
        </mxCell>
        <mxCell id="xIkBBwnJ2NsK7keoQgg3-21" value="body" style="text;strokeColor=none;fillColor=none;align=left;verticalAlign=middle;spacingLeft=4;spacingRight=4;overflow=hidden;points=[[0,0.5],[1,0.5]];portConstraint=eastwest;rotatable=0;whiteSpace=wrap;html=1;" parent="xIkBBwnJ2NsK7keoQgg3-20" vertex="1">
          <mxGeometry y="30" width="140" height="30" as="geometry" />
        </mxCell>
        <mxCell id="xIkBBwnJ2NsK7keoQgg3-22" value="time_stamp" style="text;strokeColor=none;fillColor=none;align=left;verticalAlign=middle;spacingLeft=4;spacingRight=4;overflow=hidden;points=[[0,0.5],[1,0.5]];portConstraint=eastwest;rotatable=0;whiteSpace=wrap;html=1;" parent="xIkBBwnJ2NsK7keoQgg3-20" vertex="1">
          <mxGeometry y="60" width="140" height="30" as="geometry" />
        </mxCell>
        <mxCell id="xIkBBwnJ2NsK7keoQgg3-23" value="Item 3" style="text;strokeColor=none;fillColor=none;align=left;verticalAlign=middle;spacingLeft=4;spacingRight=4;overflow=hidden;points=[[0,0.5],[1,0.5]];portConstraint=eastwest;rotatable=0;whiteSpace=wrap;html=1;" parent="xIkBBwnJ2NsK7keoQgg3-20" vertex="1">
          <mxGeometry y="90" width="140" height="30" as="geometry" />
        </mxCell>
        <mxCell id="xIkBBwnJ2NsK7keoQgg3-24" value="Chat Room" style="swimlane;fontStyle=0;childLayout=stackLayout;horizontal=1;startSize=30;horizontalStack=0;resizeParent=1;resizeParentMax=0;resizeLast=0;collapsible=1;marginBottom=0;whiteSpace=wrap;html=1;" parent="1" vertex="1">
          <mxGeometry x="350" y="570" width="140" height="60" as="geometry" />
        </mxCell>
        <mxCell id="xIkBBwnJ2NsK7keoQgg3-29" value="" style="endArrow=none;html=1;rounded=0;entryX=0.993;entryY=1.167;entryDx=0;entryDy=0;entryPerimeter=0;exitX=0.25;exitY=0;exitDx=0;exitDy=0;" parent="1" source="xIkBBwnJ2NsK7keoQgg3-1" target="xIkBBwnJ2NsK7keoQgg3-17" edge="1">
          <mxGeometry width="50" height="50" relative="1" as="geometry">
            <mxPoint x="180" y="310" as="sourcePoint" />
            <mxPoint x="230" y="260" as="targetPoint" />
            <Array as="points">
              <mxPoint x="385" y="115" />
            </Array>
          </mxGeometry>
        </mxCell>
        <mxCell id="xIkBBwnJ2NsK7keoQgg3-44" value="&amp;nbsp;0..*&amp;nbsp;" style="edgeLabel;html=1;align=center;verticalAlign=middle;resizable=0;points=[];" parent="xIkBBwnJ2NsK7keoQgg3-29" vertex="1" connectable="0">
          <mxGeometry x="0.6756" y="1" relative="1" as="geometry">
            <mxPoint as="offset" />
          </mxGeometry>
        </mxCell>
        <mxCell id="xIkBBwnJ2NsK7keoQgg3-45" value="1" style="edgeLabel;html=1;align=center;verticalAlign=middle;resizable=0;points=[];" parent="xIkBBwnJ2NsK7keoQgg3-29" vertex="1" connectable="0">
          <mxGeometry x="-0.7696" y="-2" relative="1" as="geometry">
            <mxPoint as="offset" />
          </mxGeometry>
        </mxCell>
        <mxCell id="xIkBBwnJ2NsK7keoQgg3-46" value="send by /\" style="edgeLabel;html=1;align=center;verticalAlign=middle;resizable=0;points=[];" parent="xIkBBwnJ2NsK7keoQgg3-29" vertex="1" connectable="0">
          <mxGeometry x="-0.1413" y="2" relative="1" as="geometry">
            <mxPoint as="offset" />
          </mxGeometry>
        </mxCell>
        <mxCell id="xIkBBwnJ2NsK7keoQgg3-30" value="" style="endArrow=none;html=1;rounded=0;entryX=1.007;entryY=0.178;entryDx=0;entryDy=0;entryPerimeter=0;exitX=0.707;exitY=-0.017;exitDx=0;exitDy=0;exitPerimeter=0;" parent="1" source="xIkBBwnJ2NsK7keoQgg3-1" target="xIkBBwnJ2NsK7keoQgg3-16" edge="1">
          <mxGeometry width="50" height="50" relative="1" as="geometry">
            <mxPoint x="180" y="310" as="sourcePoint" />
            <mxPoint x="230" y="260" as="targetPoint" />
            <Array as="points">
              <mxPoint x="450" y="66" />
            </Array>
          </mxGeometry>
        </mxCell>
        <mxCell id="xIkBBwnJ2NsK7keoQgg3-41" value="&amp;nbsp;0..*&amp;nbsp;" style="edgeLabel;html=1;align=center;verticalAlign=middle;resizable=0;points=[];" parent="xIkBBwnJ2NsK7keoQgg3-30" vertex="1" connectable="0">
          <mxGeometry x="0.7398" y="-2" relative="1" as="geometry">
            <mxPoint as="offset" />
          </mxGeometry>
        </mxCell>
        <mxCell id="xIkBBwnJ2NsK7keoQgg3-42" value="0..*" style="edgeLabel;html=1;align=center;verticalAlign=middle;resizable=0;points=[];" parent="xIkBBwnJ2NsK7keoQgg3-30" vertex="1" connectable="0">
          <mxGeometry x="-0.8335" y="-4" relative="1" as="geometry">
            <mxPoint as="offset" />
          </mxGeometry>
        </mxCell>
        <mxCell id="xIkBBwnJ2NsK7keoQgg3-43" value="/\ sees" style="edgeLabel;html=1;align=center;verticalAlign=middle;resizable=0;points=[];" parent="xIkBBwnJ2NsK7keoQgg3-30" vertex="1" connectable="0">
          <mxGeometry x="-0.2534" y="-4" relative="1" as="geometry">
            <mxPoint as="offset" />
          </mxGeometry>
        </mxCell>
        <mxCell id="xIkBBwnJ2NsK7keoQgg3-31" value="" style="endArrow=none;html=1;rounded=0;entryX=-0.014;entryY=0.733;entryDx=0;entryDy=0;entryPerimeter=0;exitX=1;exitY=0.5;exitDx=0;exitDy=0;" parent="1" source="xIkBBwnJ2NsK7keoQgg3-8" target="xIkBBwnJ2NsK7keoQgg3-2" edge="1">
          <mxGeometry width="50" height="50" relative="1" as="geometry">
            <mxPoint x="180" y="310" as="sourcePoint" />
            <mxPoint x="230" y="260" as="targetPoint" />
          </mxGeometry>
        </mxCell>
        <mxCell id="xIkBBwnJ2NsK7keoQgg3-47" value="&amp;nbsp;2..*&amp;nbsp;" style="edgeLabel;html=1;align=center;verticalAlign=middle;resizable=0;points=[];" parent="xIkBBwnJ2NsK7keoQgg3-31" vertex="1" connectable="0">
          <mxGeometry x="0.6903" y="-1" relative="1" as="geometry">
            <mxPoint as="offset" />
          </mxGeometry>
        </mxCell>
        <mxCell id="xIkBBwnJ2NsK7keoQgg3-48" value="&amp;nbsp;0..*&amp;nbsp;" style="edgeLabel;html=1;align=center;verticalAlign=middle;resizable=0;points=[];" parent="xIkBBwnJ2NsK7keoQgg3-31" vertex="1" connectable="0">
          <mxGeometry x="-0.8335" y="1" relative="1" as="geometry">
            <mxPoint as="offset" />
          </mxGeometry>
        </mxCell>
        <mxCell id="xIkBBwnJ2NsK7keoQgg3-49" value="&amp;nbsp;&amp;lt; particpates in&amp;nbsp;" style="edgeLabel;html=1;align=center;verticalAlign=middle;resizable=0;points=[];" parent="xIkBBwnJ2NsK7keoQgg3-31" vertex="1" connectable="0">
          <mxGeometry x="-0.0478" relative="1" as="geometry">
            <mxPoint as="offset" />
          </mxGeometry>
        </mxCell>
        <mxCell id="xIkBBwnJ2NsK7keoQgg3-32" value="" style="endArrow=none;html=1;rounded=0;entryX=0.5;entryY=0;entryDx=0;entryDy=0;exitX=0;exitY=0.5;exitDx=0;exitDy=0;" parent="1" source="xIkBBwnJ2NsK7keoQgg3-17" target="xIkBBwnJ2NsK7keoQgg3-8" edge="1">
          <mxGeometry width="50" height="50" relative="1" as="geometry">
            <mxPoint x="180" y="310" as="sourcePoint" />
            <mxPoint x="230" y="260" as="targetPoint" />
            <Array as="points">
              <mxPoint x="110" y="95" />
            </Array>
          </mxGeometry>
        </mxCell>
        <mxCell id="xIkBBwnJ2NsK7keoQgg3-38" value="contains /\" style="edgeLabel;html=1;align=center;verticalAlign=middle;resizable=0;points=[];" parent="xIkBBwnJ2NsK7keoQgg3-32" vertex="1" connectable="0">
          <mxGeometry x="0.4233" y="3" relative="1" as="geometry">
            <mxPoint as="offset" />
          </mxGeometry>
        </mxCell>
        <mxCell id="xIkBBwnJ2NsK7keoQgg3-39" value="&amp;nbsp;0..*&amp;nbsp;" style="edgeLabel;html=1;align=center;verticalAlign=middle;resizable=0;points=[];" parent="xIkBBwnJ2NsK7keoQgg3-32" vertex="1" connectable="0">
          <mxGeometry x="-0.7953" y="-1" relative="1" as="geometry">
            <mxPoint as="offset" />
          </mxGeometry>
        </mxCell>
        <mxCell id="xIkBBwnJ2NsK7keoQgg3-40" value="1" style="edgeLabel;html=1;align=center;verticalAlign=middle;resizable=0;points=[];" parent="xIkBBwnJ2NsK7keoQgg3-32" vertex="1" connectable="0">
          <mxGeometry x="0.7674" relative="1" as="geometry">
            <mxPoint as="offset" />
          </mxGeometry>
        </mxCell>
        <mxCell id="xIkBBwnJ2NsK7keoQgg3-33" value="" style="endArrow=none;html=1;rounded=0;entryX=1;entryY=0.5;entryDx=0;entryDy=0;exitX=0.5;exitY=0;exitDx=0;exitDy=0;" parent="1" source="xIkBBwnJ2NsK7keoQgg3-20" target="xIkBBwnJ2NsK7keoQgg3-3" edge="1">
          <mxGeometry width="50" height="50" relative="1" as="geometry">
            <mxPoint x="180" y="310" as="sourcePoint" />
            <mxPoint x="230" y="260" as="targetPoint" />
            <Array as="points">
              <mxPoint x="730" y="305" />
            </Array>
          </mxGeometry>
        </mxCell>
        <mxCell id="xIkBBwnJ2NsK7keoQgg3-50" value="&amp;nbsp;posted by &amp;gt;&amp;nbsp;" style="edgeLabel;html=1;align=center;verticalAlign=middle;resizable=0;points=[];" parent="xIkBBwnJ2NsK7keoQgg3-33" vertex="1" connectable="0">
          <mxGeometry x="0.3333" y="-1" relative="1" as="geometry">
            <mxPoint x="85" as="offset" />
          </mxGeometry>
        </mxCell>
        <mxCell id="xIkBBwnJ2NsK7keoQgg3-51" value="0..*" style="edgeLabel;html=1;align=center;verticalAlign=middle;resizable=0;points=[];" parent="xIkBBwnJ2NsK7keoQgg3-33" vertex="1" connectable="0">
          <mxGeometry x="-0.8261" y="3" relative="1" as="geometry">
            <mxPoint as="offset" />
          </mxGeometry>
        </mxCell>
        <mxCell id="xIkBBwnJ2NsK7keoQgg3-52" value="&amp;nbsp;1&amp;nbsp;" style="edgeLabel;html=1;align=center;verticalAlign=middle;resizable=0;points=[];" parent="xIkBBwnJ2NsK7keoQgg3-33" vertex="1" connectable="0">
          <mxGeometry x="0.8319" y="-2" relative="1" as="geometry">
            <mxPoint as="offset" />
          </mxGeometry>
        </mxCell>
        <mxCell id="xIkBBwnJ2NsK7keoQgg3-34" value="" style="endArrow=none;html=1;rounded=0;entryX=0.671;entryY=1.067;entryDx=0;entryDy=0;entryPerimeter=0;exitX=0.679;exitY=-0.033;exitDx=0;exitDy=0;exitPerimeter=0;" parent="1" source="xIkBBwnJ2NsK7keoQgg3-24" target="xIkBBwnJ2NsK7keoQgg3-6" edge="1">
          <mxGeometry width="50" height="50" relative="1" as="geometry">
            <mxPoint x="180" y="310" as="sourcePoint" />
            <mxPoint x="230" y="260" as="targetPoint" />
          </mxGeometry>
        </mxCell>
        <mxCell id="xIkBBwnJ2NsK7keoQgg3-56" value="1" style="edgeLabel;html=1;align=center;verticalAlign=middle;resizable=0;points=[];" parent="xIkBBwnJ2NsK7keoQgg3-34" vertex="1" connectable="0">
          <mxGeometry x="0.6409" y="-3" relative="1" as="geometry">
            <mxPoint as="offset" />
          </mxGeometry>
        </mxCell>
        <mxCell id="xIkBBwnJ2NsK7keoQgg3-57" value="creates V" style="edgeLabel;html=1;align=center;verticalAlign=middle;resizable=0;points=[];" parent="xIkBBwnJ2NsK7keoQgg3-34" vertex="1" connectable="0">
          <mxGeometry x="-0.1153" y="-1" relative="1" as="geometry">
            <mxPoint as="offset" />
          </mxGeometry>
        </mxCell>
        <mxCell id="xIkBBwnJ2NsK7keoQgg3-58" value="0..*" style="edgeLabel;html=1;align=center;verticalAlign=middle;resizable=0;points=[];" parent="xIkBBwnJ2NsK7keoQgg3-34" vertex="1" connectable="0">
          <mxGeometry x="-0.6666" y="-2" relative="1" as="geometry">
            <mxPoint as="offset" />
          </mxGeometry>
        </mxCell>
        <mxCell id="xIkBBwnJ2NsK7keoQgg3-35" value="" style="endArrow=none;html=1;rounded=0;exitX=0.25;exitY=0;exitDx=0;exitDy=0;entryX=0.243;entryY=1.033;entryDx=0;entryDy=0;entryPerimeter=0;" parent="1" source="xIkBBwnJ2NsK7keoQgg3-24" target="xIkBBwnJ2NsK7keoQgg3-6" edge="1">
          <mxGeometry width="50" height="50" relative="1" as="geometry">
            <mxPoint x="180" y="310" as="sourcePoint" />
            <mxPoint x="410" y="420" as="targetPoint" />
          </mxGeometry>
        </mxCell>
        <mxCell id="xIkBBwnJ2NsK7keoQgg3-59" value="0..*" style="edgeLabel;html=1;align=center;verticalAlign=middle;resizable=0;points=[];" parent="xIkBBwnJ2NsK7keoQgg3-35" vertex="1" connectable="0">
          <mxGeometry x="0.7736" y="1" relative="1" as="geometry">
            <mxPoint as="offset" />
          </mxGeometry>
        </mxCell>
        <mxCell id="xIkBBwnJ2NsK7keoQgg3-60" value="0..*" style="edgeLabel;html=1;align=center;verticalAlign=middle;resizable=0;points=[];" parent="xIkBBwnJ2NsK7keoQgg3-35" vertex="1" connectable="0">
          <mxGeometry x="-0.7736" relative="1" as="geometry">
            <mxPoint as="offset" />
          </mxGeometry>
        </mxCell>
        <mxCell id="xIkBBwnJ2NsK7keoQgg3-61" value="participates V" style="edgeLabel;html=1;align=center;verticalAlign=middle;resizable=0;points=[];" parent="xIkBBwnJ2NsK7keoQgg3-35" vertex="1" connectable="0">
          <mxGeometry x="0.1067" y="-2" relative="1" as="geometry">
            <mxPoint as="offset" />
          </mxGeometry>
        </mxCell>
        <mxCell id="xIkBBwnJ2NsK7keoQgg3-36" value="" style="endArrow=none;html=1;rounded=0;exitX=1;exitY=0.75;exitDx=0;exitDy=0;entryX=0.514;entryY=1.067;entryDx=0;entryDy=0;entryPerimeter=0;" parent="1" source="xIkBBwnJ2NsK7keoQgg3-24" target="xIkBBwnJ2NsK7keoQgg3-23" edge="1">
          <mxGeometry width="50" height="50" relative="1" as="geometry">
            <mxPoint x="330" y="380" as="sourcePoint" />
            <mxPoint x="380" y="330" as="targetPoint" />
            <Array as="points">
              <mxPoint x="730" y="615" />
            </Array>
          </mxGeometry>
        </mxCell>
        <mxCell id="xIkBBwnJ2NsK7keoQgg3-53" value="0..*" style="edgeLabel;html=1;align=center;verticalAlign=middle;resizable=0;points=[];" parent="xIkBBwnJ2NsK7keoQgg3-36" vertex="1" connectable="0">
          <mxGeometry x="0.8313" y="2" relative="1" as="geometry">
            <mxPoint as="offset" />
          </mxGeometry>
        </mxCell>
        <mxCell id="xIkBBwnJ2NsK7keoQgg3-54" value="&amp;nbsp;1&amp;nbsp;" style="edgeLabel;html=1;align=center;verticalAlign=middle;resizable=0;points=[];" parent="xIkBBwnJ2NsK7keoQgg3-36" vertex="1" connectable="0">
          <mxGeometry x="-0.7628" y="-3" relative="1" as="geometry">
            <mxPoint as="offset" />
          </mxGeometry>
        </mxCell>
        <mxCell id="xIkBBwnJ2NsK7keoQgg3-55" value="&amp;nbsp;&amp;lt; posted by&amp;nbsp;" style="edgeLabel;html=1;align=center;verticalAlign=middle;resizable=0;points=[];" parent="xIkBBwnJ2NsK7keoQgg3-36" vertex="1" connectable="0">
          <mxGeometry x="0.0436" y="-1" relative="1" as="geometry">
            <mxPoint as="offset" />
          </mxGeometry>
        </mxCell>
        <mxCell id="xIkBBwnJ2NsK7keoQgg3-37" value="" style="endArrow=none;dashed=1;html=1;dashPattern=1 3;strokeWidth=2;rounded=0;" parent="1" edge="1">
          <mxGeometry width="50" height="50" relative="1" as="geometry">
            <mxPoint x="600" y="150" as="sourcePoint" />
            <mxPoint x="460" y="150" as="targetPoint" />
          </mxGeometry>
        </mxCell>
      </root>
    </mxGraphModel>
  </diagram>
</mxfile>
